<svg xmlns="http://www.w3.org/2000/svg" width="121" height="51" viewBox="0 0 121 51"><path fill="#fff" d="m64.32 24.9.14.74H62.9l.14-.74c.22-1 .41-2.3.6-3.38h.05c.2 1.08.41 2.37.63 3.38m-43.54-3.38h-.05c-.19 1.08-.38 2.37-.6 3.38l-.14.74h1.53l-.14-.74c-.17-1-.38-2.3-.6-3.38m99.72 3.98c0 13.73-26.86 24.86-60 24.86S.5 39.23.5 25.5 27.36.64 60.5.64s60 11.13 60 24.86M16.08 19.43H13.7l-1.22 4.37-.43 1.87H12l-.43-1.87-1.27-4.37H7.9V30.1h1.99v-3.17c0-1.08-.2-2.74-.29-3.82h.05l.67 2.57 1.03 3.53h1.2l1.03-3.53.7-2.57h.05c-.1 1.06-.29 2.74-.29 3.82v3.14h2.02V19.43zm8.66 10.65L22.18 19.4h-2.72L16.9 30.08h2.28l.4-2.25h2.36l.4 2.25zm7.1-1.36-1.17-1.78c-.36.5-.89.91-1.53.91-1.08 0-1.83-1.13-1.83-3.12 0-1.94.87-3.1 1.85-3.1.58 0 .98.34 1.4.8l1.17-1.8a3.5 3.5 0 0 0-2.62-1.42c-2.13 0-4.08 2.04-4.08 5.62 0 3.65 1.87 5.45 4.03 5.45 1.1.02 2.1-.5 2.79-1.56m9.4-9.3h-2.4L37.6 23.8l-.43 1.87h-.05l-.43-1.87-1.28-4.37h-2.4V30.1h2v-3.17c0-1.08-.2-2.74-.3-3.82h.06l.67 2.57 1.03 3.53h1.2l1.03-3.53.7-2.57h.05c-.1 1.06-.3 2.74-.3 3.82v3.14h2.02V19.43zm4.1 0H43.1v10.69h2.24zm7.3 8.31h-3.2v-8.3h-2.23V30.1h5.42zm6.88 0h-3.2v-8.3H54.1V30.1h5.42zm8.11 2.35-2.57-10.65h-2.7l-2.58 10.65h2.28l.41-2.25h2.35l.41 2.25zm7.54-10.65h-2.14v3.1c0 1.31.2 2.92.29 4.07h-.05l-.81-2.4-1.88-4.75H68.3v10.68h2.14v-3.1c0-1.31-.2-2.85-.29-4.07h.05l.82 2.37 1.87 4.78h2.28zm9.98 0h-5.52V30.1h2.23v-3.9h2.81v-2.38h-2.8v-2.04h3.26v-2.35zm3.7 0h-2.23V30.1h2.23zm7.3 8.3h-3.2v-8.3h-2.23V30.1h5.42zm9.67-8.3h-2.4l-1.23 4.37-.43 1.87h-.05l-.43-1.87-1.27-4.37h-2.4V30.1h1.99v-3.17c0-1.08-.2-2.74-.29-3.82h.05l.67 2.57 1.03 3.53h1.2l1.04-3.53.7-2.57h.04c-.1 1.06-.29 2.74-.29 3.82v3.14h2.02V19.43zm7.82 7.44c0-1.49-.6-2.4-1.66-2.93l-1.03-.5c-.77-.39-1.25-.56-1.25-1.06 0-.48.34-.72.9-.72.62 0 1.12.26 1.67.77l1.13-1.78a3.7 3.7 0 0 0-2.8-1.44c-1.86 0-3.15 1.49-3.15 3.31 0 1.54.79 2.52 1.7 2.98l1.06.55c.72.36 1.15.53 1.15 1.03 0 .48-.29.75-.96.75-.62 0-1.37-.43-1.97-1.03l-1.27 1.94a4.4 4.4 0 0 0 3.2 1.54c2.1.02 3.28-1.59 3.28-3.41M70.78 44.82c1.39-.07 2.78-.29 4.17-.46.29-.02.55-.16.82-.24a23 23 0 0 0 5.71-3.4c1.49-1.5 3.07-2.9 4.25-4.68q.27-.35.57-.65c-.28-.07-.55-.2-.84-.2l-10.34-.02c-.53 0-1.06 0-1.56-.14-2.02-.55-2.02-.58-3.14 1.1-.05.07-.15.1-.15.17a2.3 2.3 0 0 1-.81 1.51l-.08-1.99c0-.05.12-.1.15-.17.48-.72-.2-.5-.43-.48-1.5.2-2.14 1.3-2.52 2.55-.48 1.6-1.42 2.66-3.1 2.95-.91.14-1.08 0-1.06-.89q.06-1.34-.45-2.57a5 5 0 0 1-.43-1.63c0-.72-.24-.86-.92-.86l-9.43.02c-.98 0-1.94.1-2.93.14-.48 1.1-.93 2.24-1.48 3.3-.58 1.12-.41 2.32-.46 3.5 0 .12-.12.26-.17.38a1 1 0 0 1-.31-.24c-.31-.4-.55-.84-.89-1.25-1.05-1.32-1.39-2.97-1.77-4.53-.24-.92-.56-1.3-1.44-1.3l-6.92.02c-.33 0-.7.17-1 .34-.12.07-.27.4-.22.46 1 1.2 1.9 2.56 3.1 3.52a42 42 0 0 0 9.96 5.9c.64.27 1.5.94 1.92.73.98-.53 1.6-.1 2.32.31.63.36.63-.29.9-.5-.6-.53-.4-.72.28-.63.82.12 1.42.63 2.06 1.1 1.5 1.11 2.98 1.01 4.37-.21a3.5 3.5 0 0 1 2.62-.91h5.28c1.46-.03 2.93.02 4.37-.05M56.18 15.4c1.4.02 2.76.14 3.6-1.3.03-.05.12-.05.2-.1l.6-.45c-.24 0-.48.05-.7 0-.38-.1-.96.33-1.15-.36-.15-.58.07-1.18.57-1.32.77-.22.87-.63.82-1.27-.02-.22.2-.68.31-.68 1.37-.19 2.33-1.46 3.8-1.41.14 0 .38-.2.45-.34.14-.4-.53-1.99-.72-1.87-.46.29-.8.7-.67 1.32.02.12-.27.46-.34.43-.48-.14-.91-.36-1.37-.57l.12-.32c.58-1.44 1.16-1.87 2.64-1.84.58 0 1.16.14 1.73.21.12 1.15.53.63 1.13.31.34-.16.89-.9 1.42-.1.21-.28.57-.54.64-.86.12-.6-.4-.48-.76-.48-.7 0-1.56.27-2.04-.04-1.06-.72-2.26-.34-3.36-.77-1.06-.41-2.43-.1-3.65-.1-1.1 0-1.1.03-2.07 1.06-.4.45-.84 1.1-1.32 1.17-1 .15-1.8.56-2.5 1.25-.06.07-.35-.02-.45-.12-.14-.12-.29-.33-.26-.48.02-.19.24-.36.33-.55l.75-1.85c-.7.15-1.4.24-2.09.43-.2.05-.48.36-.48.56.07.86-.67 1.12-1.1 1.6-.1.12-.5-.04-.77-.1.12-.23.19-.5.36-.69.12-.14.7.07.36-.4-.15-.2-.5-.3-.77-.32a.8.8 0 0 0-.62.27c-.34.4-1.18.64-.44 1.44.56.57 1.01 1.24 1.44 1.92.1.16 0 .55-.14.74-.1.14-.38.12-.6.2.22.11.46.18.65.33.05.02-.07.4-.1.38-1.27-.02-2.09 1.44-3.55 1.01-.36-.12-1.03.48-1.42.86-.81.87-1.53 1.8-2.28 2.72l-.19.3c.12.06.27.15.39.15h7.58zM21.43 34.7c-.53-.03-1 .09-1.13.52-.07.24.27.77.56.94 2.06 1.27 3.93 2.88 6.16 3.88 3.48 1.59 6.82 3.6 10.78 3.92.34.02.65.64 1.1.16l-.84-.7c-.57-.45-1.1-.98-1.72-1.36a15.3 15.3 0 0 1-5.57-6.17c-.53-1.05-1.06-1.25-2.04-1.2-1.15.05-2.3 0-3.43 0-1.25.03-2.57.05-3.87 0m7.4-19.28c1.17.1 1.89-.43 2.27-1.4a8 8 0 0 1 1.95-2.63q1.65-1.6 3.24-3.24c.19-.2.24-.5.36-.77-.27-.1-.55-.29-.8-.24q-1.55.38-3.07.91c-2.4.89-4.96 1.4-6.93 3.2-2.07.52-3.27 2.32-5.07 3.26-.14.07-.26.38-.21.55.02.14.29.31.45.34l4.13.02c1.23-.02 2.47-.12 3.67 0m70.27-.05c.19 0 .4-.14.6-.21l-.34-.8q-.05-.1-.17-.16a65 65 0 0 0-11.23-6.17c-.58-.27-1.25-.36-1.87-.48-.2-.03-.58.1-.58.17 0 .26.03.67.2.76q1.3.7 2.66 1.32c1.87.92 1.87.94.57 2.28l-.16.17c-.75.77-.63 1.66.36 2.19.93.52 1.87 1.08 3.07.96.98-.1 1.99-.03 2.97-.03zM82.06 44.75c2.7-1.27 5.64-1.87 8.37-3.07a29 29 0 0 0 9.29-5.86c.14-.14.22-.31.34-.48-.22-.05-.41-.14-.63-.14-.77-.03-1.53.02-2.3-.03-.46-.02-.53.2-.72.6a5.2 5.2 0 0 1-4.06 3.27c-.53.1-.81-.05-.79-.58 0-.12.17-.22.26-.34-.72-.16-1.27-1.05-2.2-.52a2 2 0 0 1-1.01.28c-.72-.04-1.01.36-1.4.9-.6.83-1.24 1.8-2.1 2.3-1.5.86-2.4 2.28-3.68 3.33-.05.05-.05.22-.02.31 0 .05.12.05.19.1q.25.02.46-.07m-58.9-3.15.6-.21c-.2-.07-.4-.12-.6-.24-.96-.63-2.06-1.1-2.86-1.9-1.22-1.22-3.04-1.85-3.76-3.65-.17-.38-.77-.84-1.2-.86-1.83-.1-3.65-.05-5.5-.02-.12 0-.29.26-.34.45-.02.1.05.31.15.39 1.03.6 2.16 1.1 3.14 1.8 2.74 1.99 6.05 2.76 9 4.24.24.12.6.03.91.03.17 0 .32.02.46-.03m-8.98-26.2c1.06.14 1.9-.17 2.57-1.04a9 9 0 0 1 1.8-1.72c1.83-1.3 3.7-2.52 5.52-3.82.12-.07.07-.4.1-.6l-.48.1-5.14 1.99a47 47 0 0 0-7.58 3.84c-.39.24-.65.62-.99.96q.72.17 1.44.26c.46.05.92 0 1.37 0 .48.03.94-.02 1.4.03m93.1 19.77c-.77 0-1.54-.02-2.3.03-.27.02-.72.14-.77.3-.31 1.23-1.56 1.47-2.28 2.24-1.1 1.2-2.4 2.16-3.82 2.98-.1.04-.17.19-.24.28.12.05.27.15.39.17.21.03.5.1.67 0 2.85-1.58 6.14-2.28 8.73-4.46.53-.43 1.18-.75 1.59-1.35l-2-.24zm1.27-19.8c.27-.02.5-.17.77-.24-.22-.21-.4-.5-.65-.65-.5-.26-1.08-.38-1.56-.67a30 30 0 0 0-8.66-4.05c-.22-.05-.39-.6-.58-.05-.05.14.22.45.41.6 1.51 1.15 3.07 2.23 4.54 3.43.55.43.79 1.32 1.39 1.58.65.3 1.51.08 2.28.08h.24c.6 0 1.22.02 1.82-.03m-40.53-1.82c-.77.12-1.2-.07-1.04-.96.03-.12-.24-.39-.38-.39-.17-.02-.38.15-.5.3-.08.09.02.3-.03.45q-.09.3-.21.6c-.17-.15-.39-.29-.48-.48-.12-.24-.15-.55-.24-.82-.15-.43-1.32-.96-1.35-.77-.07.72-.21.84-.7.27-.47-.6-.93-.67-1.43-.03-.24.3-.58.53-.8.82-.16.22-.21.5-.33.77.24.07.48.24.7.21.93-.16 2.01.1 2.4.72.35.6.6.65 1.12.7 1.06.05 2.11.05 3.12.24.96.17.96.26.94-.7.12-.64-.03-1.05-.8-.93"/></svg>
